<?xml version="1.0" encoding="UTF-8"?>
<svg width="16px" height="16px" viewBox="0 0 16 16" version="1.1" xmlns="http://www.w3.org/2000/svg" xmlns:xlink="http://www.w3.org/1999/xlink">
    <!-- Generator: Sketch 55.2 (78181) - https://sketchapp.com -->
    <title>daili</title>
    <desc>Created with Sketch.</desc>
    <g id="页面1" stroke="none" stroke-width="1"  fill-rule="evenodd">
        <g id="首页（下拉）" transform="translate(-22.000000, -396.000000)">
            <g id="编组-3" transform="translate(0.000000, 70.000000)">
                <g id="daili-2" transform="translate(22.054349, 326.054476)">
                    <path d="M15.808254,6.57473016 C15.7528889,6.50222222 15.6806349,6.45904762 15.5909841,6.44533333 L13.6977778,6.15568254 C13.5942857,5.82463492 13.4528254,5.48673016 13.2735238,5.14184127 C13.3975873,4.96939683 13.583746,4.72634921 13.832,4.41244444 C14.080254,4.09853968 14.256127,3.86933333 14.359619,3.72444444 C14.4148571,3.64850794 14.4422857,3.56926984 14.4422857,3.48647619 C14.4422857,3.38996825 14.4182857,3.31415873 14.3699048,3.25892063 C14.1216508,2.90704762 13.5526349,2.32088889 12.6628571,1.50006349 C12.5803175,1.43111111 12.4939683,1.39669841 12.4044444,1.39669841 C12.3009524,1.39669841 12.2181587,1.42768254 12.1560635,1.48965079 L10.6871111,2.59669841 C10.4041905,2.45180952 10.0938413,2.32419048 9.75593651,2.21384127 L9.46628571,0.310349206 C9.45942857,0.220698413 9.41968254,0.146539683 9.34730159,0.0878730159 C9.27479365,0.0292063492 9.19047619,8.52651283e-14 9.09371429,8.52651283e-14 L6.79707937,8.52651283e-14 C6.59707937,8.52651283e-14 6.47288889,0.0965079365 6.42463492,0.289650794 C6.33498413,0.634412698 6.23492063,1.27580952 6.12457143,2.21384127 C5.80038095,2.31746032 5.48660317,2.44850794 5.18311111,2.60711111 L3.75542857,1.50006349 C3.66577778,1.43111111 3.57612698,1.39669841 3.48647619,1.39669841 C3.33473016,1.39669841 3.00888889,1.6431746 2.5088254,2.13638095 C2.0087619,2.6295873 1.66920635,3.00025397 1.48977778,3.24850794 C1.42768254,3.33815873 1.39669841,3.41752381 1.39669841,3.48647619 C1.39669841,3.56926984 1.43111111,3.65206349 1.50006349,3.73473016 C1.96215873,4.29346032 2.3311746,4.76926984 2.60711111,5.16253968 C2.43466667,5.47974603 2.30019048,5.79707937 2.20368254,6.11428571 L0.279365079,6.40393651 C0.203555556,6.41777778 0.138031746,6.46260317 0.0827936508,6.53853968 C0.0275555556,6.61434921 -4.88498131e-14,6.69371429 -4.88498131e-14,6.77638095 L-4.88498131e-14,9.07314286 C-4.88498131e-14,9.16292063 0.0275555556,9.24380952 0.0827936508,9.31619048 C0.138031746,9.38869841 0.210412698,9.432 0.300063492,9.44571429 L2.19339683,9.72507937 C2.28990476,10.0629841 2.4312381,10.4043175 2.61752381,10.7490794 C2.49346032,10.9215238 2.3071746,11.1645714 2.05892063,11.4784762 C1.81066667,11.792381 1.63466667,12.0215873 1.53130159,12.1664762 C1.47606349,12.2425397 1.44850794,12.3216508 1.44850794,12.4044444 C1.44850794,12.4940952 1.47263492,12.5733333 1.52088889,12.6422857 C1.78984127,13.0148571 2.35885714,13.5942857 3.22793651,14.3804444 C3.30387302,14.456381 3.39009524,14.4942222 3.48660317,14.4942222 C3.59009524,14.4942222 3.67631746,14.4632381 3.74526984,14.4012698 L5.20406349,13.2940952 C5.48698413,13.4389841 5.79733333,13.5666032 6.1352381,13.6770794 L6.42488889,15.5805714 C6.43187302,15.6702222 6.47149206,15.744381 6.54387302,15.8030476 C6.61625397,15.8618413 6.7008254,15.8909206 6.79733333,15.8909206 L9.09409524,15.8909206 C9.29434921,15.8909206 9.4184127,15.7944127 9.46679365,15.6012698 C9.55631746,15.256381 9.65625397,14.6151111 9.76660317,13.6770794 C10.0907937,13.5735873 10.4046984,13.4424127 10.7080635,13.2838095 L12.135873,14.4012698 C12.232381,14.4632381 12.3221587,14.4942222 12.4048254,14.4942222 C12.5564444,14.4942222 12.8806349,14.2495238 13.3771429,13.759746 C13.8739048,13.2700952 14.2152381,12.8975238 14.4012698,12.6422857 C14.4633651,12.5733333 14.4944762,12.4940952 14.4944762,12.4044444 C14.4944762,12.3147937 14.4600635,12.2283175 14.3909841,12.1457778 C13.8944762,11.5387937 13.5254603,11.0629841 13.2839365,10.7180952 C13.4218413,10.4628571 13.5564444,10.1490794 13.6874921,9.77663492 L15.6013968,9.48711111 C15.6840635,9.47326984 15.7532698,9.42831746 15.808381,9.35238095 C15.8634921,9.27644444 15.8909206,9.19707937 15.8909206,9.1144127 L15.8909206,6.81777778 C15.8910476,6.72812698 15.863619,6.6472381 15.808254,6.57473016 L15.808254,6.57473016 Z M9.81828571,9.81803175 C9.30107937,10.3353651 8.6768254,10.5940317 7.94565079,10.5940317 C7.21447619,10.5940317 6.59034921,10.3353651 6.07301587,9.81803175 C5.55580952,9.3008254 5.29714286,8.67669841 5.29714286,7.94552381 C5.29714286,7.21434921 5.55568254,6.59022222 6.07301587,6.07288889 C6.59034921,5.55568254 7.21460317,5.29701587 7.94565079,5.29701587 C8.6768254,5.29701587 9.30107937,5.55568254 9.81828571,6.07288889 C10.3354921,6.59022222 10.5941587,7.21434921 10.5941587,7.94552381 C10.5941587,8.67669841 10.3354921,9.3008254 9.81828571,9.81803175 L9.81828571,9.81803175 Z" id="daili"></path>
                </g>
            </g>
        </g>
    </g>
</svg>