<?xml version="1.0" encoding="UTF-8"?>
<svg width="16px" height="16px" viewBox="0 0 16 16" version="1.1" xmlns="http://www.w3.org/2000/svg" xmlns:xlink="http://www.w3.org/1999/xlink">
    <!-- Generator: Sketch 55.2 (78181) - https://sketchapp.com -->
    <title>形状</title>
    <desc>Created with Sketch.</desc>
    <g id="页面1" stroke="none" stroke-width="1" fill-rule="evenodd">
        <g id="首页（下拉）" transform="translate(-22.000000, -207.000000)" fill-rule="nonzero">
            <g id="编组-3" transform="translate(0.000000, 70.000000)">
                <g id="Icons" transform="translate(21.000000, 46.000000)">
                    <g id="dingdanguanli" transform="translate(1.000000, 91.000000)">
                        <path d="M14.3971094,15.940625 L1.73882812,15.940625 C1.33548437,15.940625 1.00854687,15.6060938 1.00854687,15.1934375 L1.00854687,2.24167188 C1.00854687,1.8289375 1.33548437,1.49440625 1.73882812,1.49440625 L2.956,1.49440625 L2.956,2.24167188 C2.956,3.06696875 3.60990625,3.73607813 4.41653125,3.73607813 C5.22315625,3.73607813 5.87710937,3.06696875 5.87710937,2.24167188 L5.87710937,1.49440625 L6.60740625,1.49440625 L6.60740625,2.2416875 C6.60740625,3.06698438 7.26132812,3.73609375 8.06798437,3.73609375 C8.87465625,3.73609375 9.5285625,3.06698438 9.5285625,2.2416875 L9.5285625,1.49440625 L10.2588437,1.49440625 L10.2588437,2.2416875 C10.2588437,3.06698438 10.9127812,3.73609375 11.7194219,3.73609375 C12.5260625,3.73609375 13.18,3.06698438 13.18,2.2416875 L13.18,1.49440625 L14.3971406,1.49440625 C14.8004687,1.49440625 15.1274375,1.82895313 15.1274375,2.2416875 L15.1274375,15.1934219 C15.1274375,15.6061094 14.8004219,15.940625 14.397125,15.940625 L14.3971094,15.940625 Z M12.4496875,5.72864062 L3.68625,5.72864062 C3.28292187,5.72864062 2.956,6.06317188 2.956,6.47585937 C2.956,6.88854687 3.2829375,7.22309375 3.68625,7.22309375 L12.4496875,7.22309375 C12.8530156,7.22309375 13.1799687,6.88854687 13.1799687,6.47585937 C13.1799687,6.06317188 12.853,5.72864062 12.4496562,5.72864062 L12.4496875,5.72864062 Z M12.4496875,8.96657812 L3.68625,8.96657812 C3.28292187,8.96657812 2.956,9.30115625 2.956,9.71379687 C2.956,10.1264844 3.2829375,10.4610469 3.68625,10.4610469 L12.4496875,10.4610469 C12.8530156,10.4610469 13.1799687,10.1264844 13.1799687,9.71379687 C13.1799687,9.30114063 12.853,8.96657812 12.4496562,8.96657812 L12.4496875,8.96657812 Z M12.5714219,12.2045469 L3.56454687,12.2045469 C3.22842187,12.2045469 2.956,12.4832969 2.956,12.8272188 C2.956,13.1710938 3.22842187,13.449875 3.56454687,13.449875 L12.5714219,13.449875 C12.9075156,13.449875 13.1799687,13.1710938 13.1799687,12.8272188 C13.1799687,12.4832969 12.9075,12.2045469 12.5714219,12.2045469 Z M11.7194062,2.988875 C11.3160781,2.988875 10.989125,2.65432813 10.989125,2.24167188 L10.989125,0.7471875 C10.989125,0.334578125 11.3160781,0 11.7194062,0 C12.12275,0 12.4497031,0.334578125 12.4497031,0.747203125 L12.4497031,2.2416875 C12.4496875,2.65434375 12.12275,2.988875 11.7194062,2.988875 L11.7194062,2.988875 Z M8.06796875,2.988875 C7.66464062,2.988875 7.33767187,2.65432813 7.33767187,2.24167188 L7.33767187,0.7471875 C7.3376875,0.334578125 7.66465625,0 8.06796875,0 C8.47128125,0 8.79825,0.334578125 8.79825,0.747203125 L8.79825,2.2416875 C8.79825,2.65434375 8.47129687,2.988875 8.06796875,2.988875 L8.06796875,2.988875 Z M4.41653125,2.988875 C4.01321875,2.988875 3.68625,2.65432813 3.68625,2.24167188 L3.68625,0.7471875 C3.68625,0.334578125 4.01323437,0 4.41653125,0 C4.81982812,0 5.14684375,0.334578125 5.14684375,0.747203125 L5.14684375,2.2416875 C5.14685937,2.65434375 4.81985937,2.988875 4.41653125,2.988875 L4.41653125,2.988875 Z" id="形状"></path>
                    </g>
                </g>
            </g>
        </g>
    </g>
</svg>