<?xml version="1.0" encoding="UTF-8"?>
<svg width="16px" height="16px" viewBox="0 0 16 16" version="1.1" xmlns="http://www.w3.org/2000/svg" xmlns:xlink="http://www.w3.org/1999/xlink">
    <!-- Generator: Sketch 55.2 (78181) - https://sketchapp.com -->
    <title>guize</title>
    <desc>Created with Sketch.</desc>
    <g id="页面1" stroke="none" stroke-width="1"  fill-rule="evenodd">
        <g id="首页（下拉）" transform="translate(-22.000000, -300.000000)" >
            <g id="编组-3" transform="translate(0.000000, 70.000000)">
                <g id="Icons" transform="translate(21.000000, 46.000000)">
                    <g id="guize-2" transform="translate(1.000000, 184.000000)">
                        <path d="M15.7396877,7.68277621 L13.2603283,1.64532152 C13.1909031,1.46288092 13.0643269,1.30984025 12.8802161,1.185931 C12.6962331,1.0618875 12.5139122,1 12.3333813,1 L3.66674658,1 C3.48621566,1 3.30389478,1.0618875 3.11991178,1.185931 C2.93592878,1.30984025 2.80909687,1.46288092 2.73967173,1.64532152 L0.26044014,7.68277621 C0.08681338,8.1275339 0,8.57605048 0,9.02805746 L0,14.3000403 C0,14.4895959 0.0659730546,14.6536448 0.197919164,14.7921869 C0.329993128,14.930729 0.486231641,15 0.666762558,15 L15.3334932,15 C15.5140241,15 15.6702626,14.930729 15.8022087,14.7921869 C15.9340269,14.6536448 16,14.4895959 16,14.3000403 L16,9.02805746 C16,8.57605048 15.9134423,8.1275339 15.7396877,7.68277621 L15.7396877,7.68277621 Z M10.6794351,8.81797894 L9.68143419,11 L6.31882376,11 L5.32056491,8.81797894 L2,8.81797894 C2.00709357,8.80291513 2.01573483,8.77264802 2.0263107,8.72717763 C2.03688657,8.68184671 2.0456568,8.65144013 2.0526214,8.63637632 L4.28026053,3 L11.7198684,3 L13.9473786,8.63637632 C13.9546011,8.65911151 13.9632424,8.6895181 13.9735603,8.72717763 C13.9841362,8.76497664 13.9927775,8.79524374 14,8.81797894 L10.6794351,8.81797894 L10.6794351,8.81797894 Z" id="guize"></path>
                    </g>
                </g>
            </g>
        </g>
    </g>
</svg>