<?xml version="1.0" encoding="UTF-8"?>
<svg width="18px" height="20px" viewBox="0 0 18 20" version="1.1" xmlns="http://www.w3.org/2000/svg" xmlns:xlink="http://www.w3.org/1999/xlink">
    <!-- Generator: Sketch 55.2 (78181) - https://sketchapp.com -->
    <title>Icon</title>
    <desc>Created with Sketch.</desc>
    <g id="页面1" stroke="none" stroke-width="1" fill="none" fill-rule="evenodd">
        <g id="首页（下拉）" transform="translate(-1608.000000, -199.000000)" fill="#8998AC" fill-rule="nonzero">
            <g id="Profile" transform="translate(1588.000000, 70.000000)">
                <g id="1" transform="translate(0.000000, 115.000000)">
                    <g id="Text-&amp;-Icon" transform="translate(20.000000, 13.000000)">
                        <g id="Icon" transform="translate(0.000000, 1.000000)">
                            <g id="编组">
                                <path d="M12.2216802,19.233986 L4.89554332,19.233986 C2.19779639,19.233986 0.011290834,17.0812936 0.011290834,14.4261098 L0.011290834,9.61825552 C0.011290834,8.29024591 1.10515921,7.21348195 2.45321923,7.21348195 L2.45321923,6.01318375 C2.45321923,2.69361041 5.18598841,0.00252497266 8.55821605,0.00252497266 C11.9291026,0.00252497266 14.6640263,2.69361041 14.6640263,6.01318375 L14.6640263,7.21348195 C16.0124601,7.21348195 17.1059107,8.29024591 17.1059107,9.61825552 L17.1059107,14.4261318 C17.1059107,17.0812936 14.9194491,19.233986 12.2216802,19.233986 L12.2216802,19.233986 L12.2216802,19.233986 L12.2216802,19.233986 Z M7.33744971,14.0935193 L7.33744971,15.6272654 C7.33744971,16.2916769 7.88336158,16.8292344 8.55823803,16.8292344 C9.2321911,16.8292344 9.7797958,16.2916769 9.7797958,15.6272654 L9.7797958,14.0935193 C10.5055677,13.676572 11.0013536,12.9086546 11.0013536,12.0221936 C11.0013536,10.694184 9.9075072,9.61825552 8.558238,9.61825552 C7.20936455,9.61825552 6.11672735,10.6941621 6.11672735,12.0221936 C6.11672735,12.9086546 6.61005088,13.676572 7.33744971,14.0935193 L7.33744971,14.0935193 L7.33744971,14.0935193 L7.33744971,14.0935193 Z M8.55823803,2.40562768 C6.5345101,2.40562768 4.89554334,4.02036688 4.89554334,6.01320575 C4.89554334,6.43681455 4.98315394,6.83705318 5.11965938,7.21350395 L11.9971465,7.21350395 C12.1332122,6.83705318 12.2216802,6.43681455 12.2216802,6.01320575 C12.2216802,4.02036688 10.5811085,2.40562768 8.55823803,2.40562768 L8.55823803,2.40562768 L8.55823803,2.40562768 L8.55823803,2.40562768 Z" id="形状"></path>
                            </g>
                        </g>
                    </g>
                </g>
            </g>
        </g>
    </g>
</svg>