<?xml version="1.0" standalone="no"?><!DOCTYPE svg PUBLIC "-//W3C//DTD SVG 1.1//EN" "http://www.w3.org/Graphics/SVG/1.1/DTD/svg11.dtd"><svg class="icon" width="32px" height="32.00px" viewBox="0 0 1024 1024" version="1.1" xmlns="http://www.w3.org/2000/svg"><path fill="#71f6fd" d="M821.378449 385.237462v-98.597381C821.378449 128.373817 686.056798 0 519.050957 0S216.736354 128.373817 216.736354 286.640081v96.960322C143.00423 388.640483 84.856395 446.955891 84.856395 518.187311v370.929305C84.856395 963.583484 148.547029 1024 227.125881 1024h569.748238c78.630413 0 142.269486-60.403625 142.269486-134.883384V518.187311c0-66.590937-50.851964-121.915811-117.752266-132.924068zM582.12286 730.876133v124.919235H475.430413v-122.869688c-35.731722-17.633837-60.12004-53.056193-60.12004-93.879557 0-58.405639 49.910977-105.699899 111.539174-105.699899s111.539174 47.345821 111.539174 105.699899c0 39.328097-22.635247 73.654783-56.240081 91.868681zM725.500906 383.226586H311.544008V304.209466c0-108.368177 92.642095-196.292447 207.01712-196.292447S725.500906 195.841289 725.500906 304.209466z m0 0"  /></svg>