<?xml version="1.0" encoding="UTF-8"?>
<svg width="16px" height="16px" viewBox="0 0 16 16" version="1.1" xmlns="http://www.w3.org/2000/svg" xmlns:xlink="http://www.w3.org/1999/xlink">
    <!-- Generator: Sketch 55.2 (78181) - https://sketchapp.com -->
    <title>shebei</title>
    <desc>Created with Sketch.</desc>
    <g id="页面1" stroke="none" stroke-width="1" fill-rule="evenodd">
        <g id="首页（下拉）" transform="translate(-22.000000, -161.000000)"  fill-rule="nonzero">
            <g id="编组-3" transform="translate(0.000000, 70.000000)">
                <g id="Icons" transform="translate(21.000000, 46.000000)">
                    <g id="shebei-2" transform="translate(1.000000, 45.000000)">
                        <g id="shebei">
                            <path d="M10.1999875,7 C9.987813,7 9.78432894,6.92159387 9.63430097,6.78203064 C9.484273,6.6424674 9.39999107,6.45317977 9.39999688,6.25581025 C9.40000564,5.62436642 9.0378702,5.04088477 8.45000552,4.7251605 C7.86214084,4.40943623 7.13785916,4.40943623 6.54999448,4.7251605 C5.9621298,5.04088477 5.59999436,5.62436642 5.60000312,6.25581025 C5.60000312,6.66680928 5.24183023,7 4.80000156,7 C4.3581729,7 4,6.66680928 4,6.25581025 C4,5.09262497 4.66708173,4.01779271 5.74999039,3.43619688 C6.83289904,2.85460104 8.16710096,2.85460104 9.25000961,3.43619688 C10.3329183,4.01779271 11,5.09262497 11,6.25581025 C11,6.4531833 10.9157209,6.64247401 10.7656882,6.78203783 C10.6156555,6.92160165 10.4121658,7 10.1999875,7 L10.1999875,7 Z" id="路径"></path>
                            <path d="M13.1915427,7 C12.977657,7 12.7725319,6.91456434 12.621294,6.7624885 C12.4700561,6.61041267 12.3850945,6.40415438 12.3851003,6.18908961 C12.4335934,4.5819157 11.6085682,3.07551143 10.2318631,2.25751797 C8.85515796,1.43952451 7.14486409,1.43952451 5.76815898,2.25751797 C4.39145387,3.07551143 3.56642863,4.5819157 3.61492171,6.18908961 C3.61492171,6.63693693 3.25386025,7 2.80846837,7 C2.36307649,7 2.00201504,6.63693693 2.00201504,6.18908961 C1.94562308,3.99720703 3.07633874,1.94711568 4.95531904,0.834478147 C6.83429934,-0.278159382 9.16570066,-0.278159382 11.044681,0.834478147 C12.9236613,1.94711568 14.0543769,3.99720703 13.997985,6.18908961 C13.9979908,6.40415438 13.9130292,6.61041267 13.7617913,6.7624885 C13.6105534,6.91456434 13.4054283,7 13.1915427,7 L13.1915427,7 Z" id="路径"></path>
                            <path d="M15,9.54179242 L8.79999125,9.54179242 L8.79999125,6.79680419 C8.79999126,6.51213347 8.64751379,6.24908688 8.39999563,6.10675152 C8.15247748,5.96441616 7.84752252,5.96441616 7.60000437,6.10675152 C7.35248621,6.24908688 7.20000874,6.51213347 7.20000875,6.79680419 L7.20000875,9.54181421 L1,9.54181421 C0.447712802,9.54181421 0,9.98774336 0,10.5378248 L0,15.0039676 C0,15.2681298 0.105347901,15.5214746 0.292883883,15.7082675 C0.480419865,15.8950605 0.734775702,16 1,16 L15,16 C15.2652243,16 15.5195801,15.8950605 15.7071161,15.7082675 C15.8946521,15.5214746 16,15.2681298 16,15.0039676 L16,10.5378031 C16,9.98772157 15.5522872,9.54179242 15,9.54179242 Z M2.46800505,13.569694 C2.02618493,13.569694 1.6680138,13.212957 1.6680138,12.7728971 C1.6680138,12.3328371 2.02617035,11.9760856 2.46799047,11.9760856 C2.90981059,11.9760856 3.2679963,12.3328081 3.2679963,12.772868 C3.2679963,12.9841974 3.18372012,13.1868732 3.03369202,13.3363077 C2.88366393,13.4857422 2.68017971,13.569694 2.46800505,13.569694 L2.46800505,13.569694 Z M4.89199757,13.569694 C4.45017745,13.569694 4.09200632,13.212957 4.09200632,12.7728971 C4.09200632,12.3328371 4.45016287,11.9760856 4.89198299,11.9760856 C5.33380311,11.9760856 5.69198882,12.3328081 5.69198882,12.772868 C5.69198882,12.9841974 5.60771263,13.1868732 5.45768454,13.3363077 C5.30765645,13.4857422 5.10417223,13.569694 4.89199757,13.569694 Z" id="形状"></path>
                        </g>
                    </g>
                </g>
            </g>
        </g>
    </g>
</svg>