<?xml version="1.0" encoding="UTF-8"?>
<svg width="16px" height="16px" viewBox="0 0 16 16" version="1.1" xmlns="http://www.w3.org/2000/svg" xmlns:xlink="http://www.w3.org/1999/xlink">
    <!-- Generator: Sketch 55.2 (78181) - https://sketchapp.com -->
    <title>tongji</title>
    <desc>Created with Sketch.</desc>
    <g id="页面1" stroke="none" stroke-width="1" fill-rule="evenodd">
        <g id="首页（下拉）" transform="translate(-22.000000, -116.000000)" fill-rule="nonzero">
            <g id="编组-3" transform="translate(0.000000, 70.000000)">
                <g id="Icons" transform="translate(21.000000, 46.000000)">
                    <g id="tongji-2" transform="translate(1.000000, 0.000000)">
                        <g id="tongji">
                            <path d="M1.01165701,8.71471958 C0.718994288,8.71480768 0.440654676,8.58845217 0.248583145,8.3683125 C0.0751553164,8.17047752 -0.0135001701,7.91270956 0.00166988971,7.65040625 C0.0157166159,7.39123176 0.12989637,7.14755098 0.32025601,6.97048437 L5.0341457,2.32017187 C5.2719759,2.08441714 5.59398676,1.95247591 5.92937473,1.95335938 C6.21446754,1.95335938 6.49470171,2.05048437 6.71841884,2.226875 L10.1516008,4.9336875 L12.987326,1.69528125 L11.3805561,0.0005625 L16,0 L15.9984013,4.64423437 L14.4532579,3.10240625 L11.0339779,6.88040625 C10.8005782,7.13788071 10.4688139,7.2849034 10.1207092,7.285125 C9.83743448,7.285125 9.56066406,7.18640625 9.34142941,7.00720313 L5.89252739,4.18815625 L1.70786963,8.43759375 L1.70175714,8.443125 C1.51477973,8.61791731 1.26797907,8.71504744 1.01165701,8.71471958 L1.01165701,8.71471958 Z M0.364124881,9.74615625 L2.28048457,9.74615625 L2.28048457,16 L0.364156227,16 L0.364156227,9.74615625 L0.364124881,9.74615625 Z" id="形状"></path>
                            <path d="M5,7.08048862 L6.86466372,7.08048862 L6.86466372,15.9999254 L5,15.9999254 L5,7.08048862 L5,7.08048862 Z M9.56763764,9.07775185 L11.4323624,9.07775185 L11.4323624,15.9999254 L9.56763764,15.9999254 L9.56763764,9.07775185 Z M14.1352753,6 L16,6 L16,16 L14.1352753,16 L14.1352753,6 L14.1352753,6 Z" id="形状"></path>
                        </g>
                    </g>
                </g>
            </g>
        </g>
    </g>
</svg>