<?xml version="1.0" encoding="UTF-8"?>
<svg  viewBox="0 0 900 110" version="1.1" xmlns="http://www.w3.org/2000/svg" xmlns:xlink="http://www.w3.org/1999/xlink">
    <!-- Generator: Sketch 63.1 (92452) - https://sketch.com -->
    <title>bg/1</title>
    <desc>Created with Sketch.</desc>
    <defs>
        <rect id="path-1" x="0" y="0" width="900" height="110"></rect>
    </defs>
    <g id="页面-1" stroke="none" stroke-width="1" fill="none" fill-rule="evenodd">
        <g id="登录3" transform="translate(0.000000, -590.000000)">
            <g id="bg/1" transform="translate(0.000000, 590.000000)">
                <mask id="mask-2" fill="white">
                    <use xlink:href="#path-1"></use>
                </mask>
                <g id="蒙版"></g>
                <path d="M-80,10.8199929 C-0.607565205,31.5608032 65.0692935,31.5608032 117.030576,10.8199929 C194.9725,-20.2912226 303.643221,26.3756006 429.516944,18.5977968 C555.390668,10.8199929 743.053974,57.593861 819.64671,36.6591726 C870.708534,22.7027136 941.159631,14.0896537 1031,10.8199929 C1031,118.453108 1031,170.446269 1031,166.799476 C1031,163.152683 660.666667,163.152683 -80,166.799476 L-80,10.8199929 Z" id="路径-68" fill="#ECF0FF" mask="url(#mask-2)" transform="translate(475.500000, 83.489371) scale(-1, 1) translate(-475.500000, -83.489371) "></path>
                <path d="M-156,-24 C-88.1765275,39.1259851 2.46958642,59.6010725 115.938342,37.4252622 C286.141475,4.16154685 382.017311,89.5217763 559.402327,76.095333 C677.659005,67.1443708 809.524896,45.6285797 955,11.5479596 L955,155 L-156,155 L-156,-24 Z" id="路径-67" fill="#DFE7FE" mask="url(#mask-2)"></path>
                <path d="M-61,32.3618763 C11.276425,68.541205 113.291893,76.9966003 245.046403,57.7280622 C442.678168,28.8252551 749.867629,42.3608462 867.385696,53.107463 C945.731074,60.2718742 1030.26918,45.5693865 1121,9 L1121,188 L-35.9849343,188 L-61,32.3618763 Z" id="路径-66" fill="#F3F6FF" mask="url(#mask-2)"></path>
            </g>
        </g>
    </g>
</svg>