<?xml version="1.0" encoding="UTF-8"?>
<svg width="15px" height="15px" viewBox="0 0 15 15" version="1.1" xmlns="http://www.w3.org/2000/svg" xmlns:xlink="http://www.w3.org/1999/xlink">
    <title>email_black_24dp</title>
    <g id="注册&amp;登录" stroke="none" stroke-width="1" fill="none" fill-rule="evenodd">
        <g id="登录" transform="translate(-418.000000, -566.000000)">
            <g id="编组-4" transform="translate(294.500000, 563.500000)">
                <g id="email_black_24dp" transform="translate(124.000000, 3.000000)">
                    <polygon id="路径" points="0 0 14 0 14 14 0 14"></polygon>
                    <path d="M12.8333333,3.5 C12.8333333,2.85833333 12.3083333,2.33333333 11.6666667,2.33333333 L2.33333333,2.33333333 C1.69166667,2.33333333 1.16666667,2.85833333 1.16666667,3.5 L1.16666667,10.5 C1.16666667,11.1416667 1.69166667,11.6666667 2.33333333,11.6666667 L11.6666667,11.6666667 C12.3083333,11.6666667 12.8333333,11.1416667 12.8333333,10.5 L12.8333333,3.5 Z M11.6666667,3.5 L7,6.41666667 L2.33333333,3.5 L11.6666667,3.5 Z M11.6666667,10.5 L2.33333333,10.5 L2.33333333,4.66666667 L7,7.58333333 L11.6666667,4.66666667 L11.6666667,10.5 Z" id="形状" fill-opacity="0.65" fill="#0F1358" fill-rule="nonzero"></path>
                </g>
            </g>
        </g>
    </g>
</svg>