<?xml version="1.0" encoding="UTF-8"?>
<svg width="468px" height="399px" viewBox="0 0 468 399" version="1.1" xmlns="http://www.w3.org/2000/svg" xmlns:xlink="http://www.w3.org/1999/xlink">
    <!-- Generator: Sketch 63.1 (92452) - https://sketch.com -->
    <title>bg/3</title>
    <desc>Created with Sketch.</desc>
    <defs>
        <path d="M368.853477,140.96961 C377.675727,107.9314 349.148034,78.6960918 271.093145,74.1713649 C193.038256,69.6466379 189.573791,52.4872159 142.533434,28.5083027 C95.4930778,4.52938951 24.9749033,21.5659858 15.1789908,77.8147335 C5.38307822,134.063481 87.0308211,123.790961 64.5626664,209.431505 C43.6013985,321.637308 188.336231,322.739848 263.477836,274.38683 C338.619441,226.033812 360.031227,174.007821 368.853477,140.96961 Z" id="path-1"></path>
        <path d="M0.580361546,41.6877188 C34.5689706,19.7053549 63.1287348,3.84380816 76.2391025,1.0030415 C78.2099147,0.576004075 77.6501101,0.67145299 79.5587236,0.388513806 C84.0967745,-0.284221893 82.9015314,13.274741 84.4244069,15.1468743 C91.673101,24.0579909 69.9227058,52.6356959 52.0571538,65.6917413 L0.580361546,41.6877188 Z" id="path-3"></path>
        <path d="M18.2561676,11.0698138 C14.8871512,7.86059923 11.4960229,9.0996314 8.08278283,14.7869103 C2.96292268,23.3178287 3.55483127,31.3758494 15.4208556,41.2195869 C23.9105287,48.2623935 36.785109,60.1914141 47.4596334,63.0009638 C58.1341578,65.8105135 60.4214093,65.0152133 68.3876614,63.2465437 C76.3539136,61.4778741 94.9095203,54.4905713 94.9095203,54.4905713 C94.9095203,54.4905713 98.7672529,52.5684421 95.4396715,45.8678451 C94.4547608,43.8845759 93.0620826,43.0247131 91.261637,43.2882568 C73.5227336,47.17759 60.5778116,47.0900823 52.4268709,43.025734 C44.2759302,38.9613856 32.8856958,28.3094122 18.2561676,11.0698138 Z" id="path-5"></path>
        <path d="M7.61748243e-14,72.4673538 L2.77254242,56.771542 L6.7242991,42.8026029 L17.6137477,16.4687527 C23.1729178,7.01577502 35.4763143,1.65568367 54.5239372,0.388478667 C57.8054203,0.170167345 60.9054131,0.0406744557 63.8239155,3.38554775e-14 L64.8928385,19.4742362 L56.1019087,19.4742362 L70.334321,44.4070625 L61.4192566,61.3738079 L23.4649681,61.3738079 L23.4649681,72.4673538 L7.61748243e-14,72.4673538 Z" id="path-7"></path>
    </defs>
    <g id="页面-1" stroke="none" stroke-width="1" fill="none" fill-rule="evenodd">
        <g id="登录3" transform="translate(-940.000000, -256.000000)">
            <g id="bg/3" transform="translate(931.000000, 253.000000)">
                <path d="M142,75.6905687 L193.821152,79.5274835 L195.390262,56.7734244 C197.071035,63.2585518 200.377406,65.7517488 205.309376,64.2530155 C212.707331,62.0049156 213.716808,49.4041833 208.340623,45.3555767 C202.964438,41.30697 197.60627,43.9671934 196.512904,47.4916375 L198.696326,23.9586555 L177.997186,21.8470839 C181.872949,18.9746056 183.311627,15.4255767 182.313223,11.1999972 C180.815615,4.86162782 173.423854,2.17663196 165.90823,5.31372504 C158.392606,8.45081813 160.347941,18.6739582 164.212443,20.260521 L144.586469,18.8422982 L142,75.6905687 Z" id="路径-63" fill="#E3EAFF" transform="translate(176.867566, 41.763742) rotate(5.000000) translate(-176.867566, -41.763742) "></path>
                <path d="M479.915678,183.478062 C491.390244,140.469959 454.286001,102.412354 352.764736,96.522207 C251.243471,90.6320597 246.737451,68.2944637 185.554909,37.0794687 C124.372367,5.86447359 32.6536495,28.0421789 19.9126995,101.26503 C7.17174951,174.48788 113.366022,161.115437 84.1430547,272.599604 C56.8800034,418.665589 245.127832,420.100842 342.859965,357.156403 C440.592099,294.211965 468.441111,226.486166 479.915678,183.478062 Z" id="蒙版" fill="#FAFBFF" transform="translate(250.384615, 210.000000) rotate(-6.000000) translate(-250.384615, -210.000000) "></path>
                <path d="M42,380.459921 L76.9263578,383 L77.9839043,367.93657 C79.1167099,372.229794 81.3451342,373.880317 84.6691772,372.888139 C89.6552418,371.399873 90.3356081,363.058054 86.7121735,360.377833 C83.0887389,357.697612 79.477447,359.458709 78.7405415,361.791928 L80.2121214,346.212843 L66.2613402,344.81496 C68.873522,342.913349 69.843161,340.563854 69.1702573,337.766475 C68.1609018,333.570407 63.1790113,331.792911 58.1136402,333.8697 C53.0482691,335.946489 54.3661232,342.714317 56.9707158,343.764638 L43.7432253,342.82576 L42,380.459921 Z" id="路径-63备份" fill="#F3F6FF" transform="translate(65.500000, 358.000000) rotate(11.000000) translate(-65.500000, -358.000000) "></path>
                <path d="M452.336364,186.665795 C462.432204,148.826935 429.786222,115.343562 340.463249,110.161365 C251.140275,104.979168 247.175677,85.3263791 193.344525,57.8631864 C139.513374,30.3999936 58.8151222,49.9121093 47.6050615,114.334137 C36.3950008,178.756164 129.829497,166.990985 104.117816,265.075613 C80.1305576,393.58559 245.759461,394.848337 331.748586,339.469335 C417.737712,284.090334 442.240525,224.504655 452.336364,186.665795 Z" id="蒙版" fill="#F3F6FF" transform="translate(250.384615, 210.000000) rotate(-6.000000) translate(-250.384615, -210.000000) "></path>
                <g id="编组-10备份" transform="translate(57.435897, 48.461538)">
                    <mask id="mask-2" fill="white">
                        <use xlink:href="#path-1"></use>
                    </mask>
                    <use id="蒙版" fill="#E3EAFF" transform="translate(192.377923, 161.343384) rotate(-6.000000) translate(-192.377923, -161.343384) " xlink:href="#path-1"></use>
                    <g id="编组-10" mask="url(#mask-2)">
                        <g transform="translate(67.205484, 124.726337) rotate(-15.000000) translate(-67.205484, -124.726337) translate(-25.294516, 53.726337)">
                            <g id="编组-7" stroke-width="1" fill="none" transform="translate(89.369464, 35.536046) rotate(21.000000) translate(-89.369464, -35.536046) translate(66.369464, 6.536046)">
                                <path d="M6.60700991,12.5873428 C6.47650981,5.4838727 11.0339133,1.35653252 20.2792204,0.205322239 C34.147181,-1.52149318 49.5837744,7.87859522 44.4903611,19.5727245 C43.3722589,20.8559515 41.1660903,18.5274909 37.8718551,12.5873428 L28.0369595,12.5873428 L20.2792204,19.5727245 C20.5198264,24.2443653 20.0595948,26.5801857 18.8985255,26.5801857 C17.7374562,26.5801857 15.9782319,24.2443653 13.6208527,19.5727245 L11.3054121,15.1671196 L6.60700991,12.5873428 Z" id="路径-39" fill="#5966DC"></path>
                                <path d="M6.7127363,24.4632481 C6.84870531,31.4648208 9.07740432,35.4310739 13.3988333,36.3620075 C15.0448036,36.1155406 15.5150376,32.1492874 14.8095353,24.4632481 L13.3988333,22.6585189 L6.7127363,24.4632481 Z" id="路径-40" fill="#5966DC"></path>
                                <path d="M18.7908869,24.346404 C20.8796155,14.2019083 26.1538534,9.12966049 34.6136006,9.12966049 C45.303469,10.9449694 44.3568238,20.1742812 44.3568238,22.0177146 C44.3568238,23.861148 45.2121242,33.7035916 44.7707475,35.2326979 C44.3293708,36.7618042 42.0295211,35.2159716 40.8099341,34.3055662 C39.5903471,33.3951609 39.7955405,43.2005799 34.6136006,43.2005799 C31.158974,43.2005799 28.2887831,42.641925 26.0030279,41.5246152 L26.0030279,51.9971579 C25.9638644,56.2795231 24.11342,57.8388267 20.4516948,56.6750688 C17.8974345,55.8632819 14.0931918,54.3326905 12.4541457,52.0714459 C11.9803788,51.4178322 11.9249494,50.2991968 12.2878577,48.7155396 C14.2672509,32.1061052 14.6416459,24.1999421 13.4110427,24.9970504 C11.5651379,26.1927127 6.71277398,29.4717546 2.46097957,24.9970504 C-1.79081485,20.5223461 -0.040089418,14.5733888 3.96881939,12.3182719 C9.37651675,9.64053198 15.3751612,13.5982607 15.3751612,18.2618149 C15.3751612,21.0914392 16.2828613,23.2054171 18.0982615,24.6037487 L18.0983001,24.6036987 C18.2889248,24.7505295 18.5624866,24.7150275 18.7093174,24.5244027 C18.7496602,24.4720272 18.7775544,24.4111573 18.7908869,24.346404 Z" id="路径-36" fill="#FFFFFF"></path>
                                <path d="M34.6136006,9.12966049 C45.303469,10.9449694 44.3568238,20.1742812 44.3568238,22.0177146 C44.3568238,23.2466702 44.7707475,33.9673647 44.7707475,35.2326979 C44.7707475,36.4980312 41.6229921,34.9125031 40.8099341,34.3055662 C39.5903471,33.3951609 39.7955405,43.2005799 34.6136006,43.2005799 C31.158974,43.2005799 28.2887831,42.641925 26.0030279,41.5246152 L26.0030279,51.9971579 C26.7383423,61.9429021 12.3973388,54.3567594 12.1794422,51.3357593 C12.1217558,50.5359749 12.1578943,49.6625683 12.2878577,48.7155396 C12.8837983,43.8699697 13.3237229,39.7623197 13.6076313,36.3925895 M13.4110427,24.9970504 C10.9198874,27.0202798 5.74221004,28.7988128 2.46097957,24.9970504 C-1.72077764,20.1519023 0.138883125,15.3554549 3.33364157,12.6941858 C8.64865019,9.17072936 15.3751612,13.5982607 15.3751612,18.2618149" id="形状" stroke="#0F1358" stroke-width="0.628035035" stroke-linecap="round"></path>
                                <ellipse id="椭圆形" fill="#0F1358" transform="translate(37.601346, 24.448420) rotate(17.000000) translate(-37.601346, -24.448420) " cx="37.6013461" cy="24.4484203" rx="1.79487179" ry="3.92166674"></ellipse>
                                <path d="" id="路径-37" stroke="#979797" stroke-width="0.5"></path>
                                <path d="M30.8960857,34.448544 C30.4699778,36.1080614 31.2799207,37.4672784 33.3259141,38.5261953 C34.5844918,39.1302812 35.7745661,39.1302812 36.896137,38.5261953" id="路径-38" stroke="#0F1358" stroke-width="0.871481497" stroke-linecap="round"></path>
                                <path d="M4.49767766,16.3817018 C6.72639614,14.5736315 8.54743876,15.0074173 9.96080552,17.6830592 C10.8121415,19.2947216 11.5498095,22.2091079 10.5594465,23.5671114" id="路径-41" stroke="#0F1358" stroke-width="0.628035035" stroke-linecap="round" transform="translate(7.765733, 19.427574) rotate(-26.000000) translate(-7.765733, -19.427574) "></path>
                                <path d="M7.66530756,16.0880491 C7.29511622,16.0880491 6.91471013,16.3282325 6.52408927,16.8085992 C5.44940378,18.1301955 6.09838986,20.2183477 7.11002056,21.7526789" id="路径-42" stroke="#0F1358" stroke-width="0.628035035" stroke-linecap="round" transform="translate(6.817669, 18.920364) rotate(-26.000000) translate(-6.817669, -18.920364) "></path>
                            </g>
                            <g id="编组-9" stroke-width="1" fill="none" transform="translate(53.631447, 92.952626) rotate(-26.000000) translate(-53.631447, -92.952626) translate(10.631447, 59.952626)">
                                <mask id="mask-4" fill="white">
                                    <use xlink:href="#path-3"></use>
                                </mask>
                                <use id="蒙版" fill="#B5BAFF" xlink:href="#path-3"></use>
                                <g mask="url(#mask-4)">
                                    <g transform="translate(2.586027, 0.000000)">
                                        <circle id="椭圆形" stroke="none" fill="#5966DC" fill-rule="evenodd" cx="66.5593993" cy="8.78017608" r="1"></circle>
                                        <circle id="椭圆形备份" stroke="none" fill="#5966DC" fill-rule="evenodd" cx="74.9656184" cy="13.1641178" r="1"></circle>
                                        <circle id="椭圆形备份-28" stroke="none" fill="#5966DC" fill-rule="evenodd" cx="82.7389581" cy="19.8894163" r="1.98262041"></circle>
                                        <circle id="椭圆形备份-29" stroke="none" fill="#5966DC" fill-rule="evenodd" cx="70.5246401" cy="1.98262041" r="1.98262041"></circle>
                                        <circle id="椭圆形备份-30" stroke="none" fill="#5966DC" fill-rule="evenodd" cx="21.2423615" cy="28.0399172" r="1.98262041"></circle>
                                        <circle id="椭圆形备份-31" stroke="none" fill="#5966DC" fill-rule="evenodd" cx="32.571621" cy="42.2014915" r="1.98262041"></circle>
                                        <circle id="椭圆形备份-32" stroke="none" fill="#5966DC" fill-rule="evenodd" cx="11.046028" cy="43.3344174" r="1.98262041"></circle>
                                        <circle id="椭圆形备份-33" stroke="none" fill="#5966DC" fill-rule="evenodd" cx="39.3691766" cy="57.4959918" r="1.98262041"></circle>
                                        <path d="M42.4104351,46.0315962 C43.1257875,45.7281355 43.8941675,45.7205145 44.5564921,45.1212141 C45.4151578,44.3442556 48.7416186,39.5944664 47.0944077,37.1443831 C45.9520311,35.4451969 44.8468684,45.9308909 47.5823217,46.5341518 C50.317775,47.1374127 53.3396041,42.6818201 50.9625528,38.4747391 C50.0276094,36.8200071 48.8158276,41.0355217 48.7858073,41.8905329 C48.6198196,46.6180324 49.8193289,50.2436819 52.3435386,49.2704821 C53.0672983,48.9914393 54.4420572,47.9158683 54.8702706,46.7417783 C55.1634557,45.9379134 56.270228,43.1985576 56.4533827,42.2832408 C57.8932189,35.0876483 50.9927592,41.2396127 54.4837746,47.9593676 C54.9459135,48.8489255 55.5758134,49.460876 56.2139442,49.7496922 C56.7255268,49.9812331 57.3187346,49.9228042 57.7834413,49.4527878 C58.5372955,48.69032 59.5573683,44.8998429 59.983241,43.4870868 C60.3200063,42.3699284 60.2019834,40.9298436 60.1970629,39.6404412 C60.1812557,35.4981498 56.4412898,44.9262612 60.0425135,47.3847776 C60.4091044,47.6350452 60.8216343,47.6204932 61.2078798,47.5280785 C61.5768281,47.4398024 61.9617475,47.2615455 62.2659677,46.8527847 C62.9294047,45.9613678 63.5161997,44.8599674 64.0554099,43.7020382 C64.2458236,43.2931335 64.3684417,42.7555341 64.4240261,42.2184524 C65.0630207,36.0442037 62.0548952,39.4312819 62.3196069,44.1314726 C62.6343546,49.7200977 68.8573262,47.103676 68.4027059,39.3513495 C68.3148402,37.8530365 67.1342035,35.8829447 66.6490232,38.1445312 C65.6722746,42.6974806 69.7103616,45.6435592 72.3783839,41.1320375 C72.6453653,40.6805824 71.1503998,44.7674234 71.3663444,44.2252839" id="路径-53" stroke="#FCAA6D" stroke-width="1.43589744" fill="none" stroke-linecap="round" transform="translate(57.410435, 43.419913) rotate(52.000000) translate(-57.410435, -43.419913) "></path>
                                        <path d="M27.5123237,21.7819308 C28.227676,21.47847 28.9960561,21.4708491 29.6583806,20.8715486 C30.5170463,20.0945901 33.8435071,15.344801 32.1962963,12.8947176 C31.0539196,11.1955315 29.948757,21.6812255 32.6842102,22.2844864 C35.4196635,22.8877473 38.4414926,18.4321547 36.0644413,14.2250736 C35.1294979,12.5703417 33.9177162,16.7858563 33.8876958,17.6408675 C33.7217081,22.368367 34.9212174,25.9940164 37.4454271,25.0208167 C38.1691868,24.7417738 39.5439457,23.6662028 39.9721591,22.4921129 C40.2653442,21.6882479 41.3721166,18.9488921 41.5552712,18.0335754 C42.9951074,10.8379828 36.0946477,16.9899473 39.5856631,23.7097022 C40.047802,24.5992601 40.6777019,25.2112105 41.3158328,25.5000268 C41.8274154,25.7315677 42.4206231,25.6731388 42.8853298,25.2031223 C43.6391841,24.4406546 44.6592568,20.6501774 45.0851295,19.2374214 C45.4218949,18.120263 45.3038719,16.6801782 45.2989515,15.3907758 C45.2831442,11.2484843 41.5431783,20.6765958 45.144402,23.1351121 C45.5109929,23.3853797 45.9235228,23.3708277 46.3097683,23.278413 C46.6787166,23.1901369 47.063636,23.01188 47.3678562,22.6031193 C48.0312932,21.7117023 48.6180883,20.610302 49.1572984,19.4523727 C49.3477121,19.043468 49.4703302,18.5058687 49.5259147,17.968787 C50.1649092,11.7945383 47.1567837,15.1816165 47.4214954,19.8818071 C47.7362432,25.4704322 53.9592147,22.8540106 53.5045944,15.1016841 C53.4167287,13.603371 52.236092,11.6332792 51.7509117,13.8948658 C50.7741632,18.4478151 54.8122501,21.3938937 57.4802725,16.882372 C57.7472538,16.430917 56.2522883,20.5177579 56.468233,19.9756185" id="路径-53备份" stroke="#FCAA6D" stroke-width="1.43589744" fill="none" stroke-linecap="round" transform="translate(42.512324, 19.170248) rotate(52.000000) translate(-42.512324, -19.170248) "></path>
                                        <circle id="椭圆形备份-36" stroke="none" fill="#5966DC" fill-rule="evenodd" cx="18.4100466" cy="53.530751" r="1.98262041"></circle>
                                        <circle id="椭圆形备份-37" stroke="none" fill="#5966DC" fill-rule="evenodd" cx="23.5082134" cy="67.6923253" r="1.98262041"></circle>
                                        <circle id="椭圆形备份-38" stroke="none" fill="#5966DC" fill-rule="evenodd" cx="50.1319731" cy="65.9929364" r="1.98262041"></circle>
                                        <circle id="椭圆形备份-39" stroke="none" fill="#5966DC" fill-rule="evenodd" cx="1.98262041" cy="52.397825" r="1.98262041"></circle>
                                        <circle id="椭圆形备份-40" stroke="none" fill="#5966DC" fill-rule="evenodd" cx="1.98262041" cy="39.3691766" r="1.98262041"></circle>
                                        <circle id="椭圆形备份-34" stroke="none" fill="#5966DC" fill-rule="evenodd" cx="50.1319731" cy="53.530751" r="1.98262041"></circle>
                                        <circle id="椭圆形备份-35" stroke="none" fill="#5966DC" fill-rule="evenodd" cx="70.2953063" cy="34.683234" r="1.98262041"></circle>
                                        <circle id="椭圆形备份-43" stroke="none" fill="#5966DC" fill-rule="evenodd" cx="61.8347069" cy="33.4530623" r="1"></circle>
                                        <circle id="椭圆形备份-44" stroke="none" fill="#5966DC" fill-rule="evenodd" cx="64.6810167" cy="25.4208289" r="1"></circle>
                                        <circle id="椭圆形备份-45" stroke="none" fill="#5966DC" fill-rule="evenodd" cx="51.1387303" cy="16.668316" r="1"></circle>
                                        <circle id="椭圆形备份-46" stroke="none" fill="#5966DC" fill-rule="evenodd" cx="67.0493999" cy="44.3784332" r="1"></circle>
                                        <circle id="椭圆形备份-49" stroke="none" fill="#5966DC" fill-rule="evenodd" cx="56.7647982" cy="56.6351443" r="1"></circle>
                                        <circle id="椭圆形备份-47" stroke="none" fill="#5966DC" fill-rule="evenodd" cx="80.1079193" cy="7.03576224" r="1"></circle>
                                        <circle id="椭圆形备份-48" stroke="none" fill="#5966DC" fill-rule="evenodd" cx="63.9414757" cy="16.9678366" r="1"></circle>
                                        <circle id="椭圆形备份-26" stroke="none" fill="#5966DC" fill-rule="evenodd" cx="55.7966028" cy="12.1789539" r="1"></circle>
                                        <circle id="椭圆形备份-27" stroke="none" fill="#5966DC" fill-rule="evenodd" cx="57.4959918" cy="21.8088245" r="1.98262041"></circle>
                                    </g>
                                </g>
                            </g>
                            <path d="M165.569832,46.7201847 C165.677445,46.0187276 163.736929,43.855918 160.945426,44.16563 C159.084423,44.3721047 157.039714,44.8400712 154.811298,45.5695293 L155.307822,50.221568 L164.923521,50.9330426 L165.569832,46.7201847 Z" id="形状" fill="#FFFFFF" transform="translate(160.192696, 47.534265) rotate(-40.000000) translate(-160.192696, -47.534265) "></path>
                            <g id="编组-11" stroke-width="1" fill="none" transform="translate(162.365047, 35.336032) scale(-1, 1) translate(-162.365047, -35.336032) translate(144.865047, 11.336032)">
                                <path d="M3.88289213,0.284656154 C6.54837733,-0.0948853846 10.9801669,-0.0948853846 17.178261,0.284656154 C23.376355,0.664197692 25.8529508,1.45750377 24.6080483,2.66457438 L10.551752,29.8023028 L3.88289213,28.9571612 L3.88289213,0.284656154 Z" id="矩形" stroke="#0F1358" stroke-width="0.628035035" fill="#CFDAFF" stroke-linejoin="round"></path>
                                <path d="M2.62682205,1.88410511 C5.47089369,-4.74899733 0.475758072,10.4325419 18.8222535,8.6461076 C31.0532505,7.45515139 36.1220239,7.7131436 34.0285738,9.42008422 C31.2225948,9.35439894 27.7370727,13.3623171 23.5720077,21.4438387 C19.4069427,29.5253604 15.8606874,38.287635 12.9332418,47.7306627 L2.62682205,46.4179959 C-0.875607351,24.8972965 -0.875607351,10.0526662 2.62682205,1.88410511 Z" id="矩形" stroke="#0F1358" stroke-width="0.628035035" fill="#CFDAFF" stroke-linejoin="round"></path>
                                <g id="编组" transform="translate(9.370445, 24.637652) scale(-1, 1) translate(-9.370445, -24.637652) translate(2.870445, 18.137652)" fill="#FFFFFF" fill-rule="nonzero">
                                    <path d="M5.35222403,8.55318252 C5.50988117,8.54662745 5.6612581,8.48957807 5.78402644,8.39044851 L9.3915694,4.78290554 C9.59088328,4.5826605 9.590506,4.25886967 9.39072599,4.05908967 C9.19094599,3.85930966 8.86715515,3.85893237 8.66691012,4.05824626 L5.3807378,7.34552132 L3.72284337,5.68731183 C3.52259854,5.48799675 3.19880671,5.48837347 2.99902621,5.68815397 C2.79924572,5.88793447 2.798869,6.21172629 2.99818409,6.41197113 L4.98989438,8.40320881 C5.08589293,8.49943686 5.2162994,8.5534138 5.35222403,8.55318252 L5.35222403,8.55318252 Z" id="路径"></path>
                                    <path d="M8.99379447,10.4097274 C8.12299755,11.0003439 7.09457678,11.3151554 6.04238323,11.3131884 C3.13602689,11.3131884 0.771747208,8.94890876 0.771747196,6.04270996 C0.77000072,5.00419611 1.07653716,3.9885303 1.65252331,3.12438099 C1.73190033,3.01017373 1.74333124,2.86197655 1.68240726,2.73694744 C1.62148329,2.61191832 1.49772515,2.52959584 1.35886497,2.52173083 C1.22000478,2.51386583 1.08774252,2.58168738 1.01309025,2.69903749 C0.352991697,3.68926182 0.00161108113,4.85311074 0.00344363176,6.04318256 C0.00344363176,9.37283444 2.7130464,12.0818094 6.04238323,12.0818094 C7.24825454,12.0839469 8.42685362,11.723083 9.42480922,11.0461673 C9.53874532,10.9693093 9.60293896,10.8374366 9.59314785,10.7003501 C9.58335674,10.5632636 9.50107287,10.4418528 9.37737019,10.3819676 C9.2536675,10.3220825 9.10739613,10.3328485 8.99379447,10.4102 L8.99379447,10.4097274 Z M6.04238323,0.00344362992 C4.76331922,0.000254909755 3.51678392,0.406382194 2.48509381,1.16244474 C2.31356548,1.28742594 2.27583158,1.52779442 2.40081279,1.69932275 C2.52579399,1.87085108 2.76616246,1.90858498 2.9376908,1.78360377 C3.83821337,1.12401276 4.9261431,0.769833893 6.04238323,0.772861603 C8.9484245,0.772861603 11.3127042,3.13714129 11.3127042,6.04349762 C11.3154964,7.15936105 10.9613292,8.24686853 10.301962,9.14708732 C10.2188706,9.25777709 10.2017624,9.4046127 10.2571799,9.53144055 C10.3125975,9.65826839 10.4319682,9.74546938 10.5696418,9.75969567 C10.7073154,9.77392197 10.8419951,9.71297289 10.9221758,9.6001569 C11.678284,8.5684398 12.0843649,7.32182229 12.0810213,6.04270996 C12.0810213,2.71305807 9.37203511,0.00344362992 6.04238323,0.00344362992 Z" id="形状"></path>
                                </g>
                                <path d="M1.99878702,4.39624525 C3.12235825,10.4899624 6.26744993,13.3539903 11.4340621,12.9883288 C19.1839803,12.4398367 27.6905237,11.0377824 28.6406447,12.9883288" id="路径-50" stroke="#0F1358" stroke-width="0.628035035" stroke-linecap="round"></path>
                                <circle id="椭圆形" fill="#0F1358" cx="18.955733" cy="3.14017518" r="1"></circle>
                                <circle id="椭圆形备份-41" fill="#0F1358" cx="21.4678731" cy="3.76821021" r="1"></circle>
                                <circle id="椭圆形备份-42" fill="#0F1358" cx="16.4435928" cy="2.51214014" r="1"></circle>
                                <path d="M22.5543634,6.36461918 C15.138486,4.54519721 9.69551569,4.09034172 6.22545253,5.0000527" id="路径-54" stroke="#0F1358" stroke-width="0.628035035" stroke-linecap="round"></path>
                            </g>
                            <g id="编组-8" stroke-width="1" fill="none" transform="translate(167.549266, 51.963764) rotate(-23.000000) translate(-167.549266, -51.963764) translate(154.049266, 40.463764)" stroke-linecap="round">
                                <path d="M1.54930044,3.40178316 C2.89065337,14.6619575 3.56132984,20.2920447 3.56132984,20.2920447 C3.56132984,20.2920447 12.4734961,20.1713501 20.3796069,15.328929 C20.8567407,15.0366889 22.0009414,13.7073795 22.0757017,13.2442934 C22.1075313,13.047132 23.1064897,12.2877452 23.2725596,12.1290965 C23.956723,11.4755062 24.7051538,10.4546325 23.7421217,9.7705519 C23.5248371,9.61620588 22.7804119,9.56604589 21.5088462,9.62007195 C22.860974,9.19020962 23.6053992,8.94923094 23.7421217,8.8971359 C24.470093,8.61975881 25.4340927,7.5572346 25.5224003,6.92215704 C25.7643728,5.18197537 24.4747108,4.83978278 23.4068454,4.83978278 C22.8341417,4.83978278 19.5175797,5.4381344 19.4517172,5.3574388 C19.4080881,5.30398389 20.9267522,5.02581764 21.7821725,4.55603577 C22.1672949,4.34453332 22.6499755,3.72629762 22.6640668,3.70243046 C23.5370379,2.22382946 21.3923915,1.77435483 20.0535275,1.98604078 C15.4262884,2.71764721 10.8374101,3.08345043 6.28689286,3.08345043 L1.54930044,3.40178316 Z" id="路径-45" stroke="#0F1358" stroke-width="0.628035035" fill="#FFFFFF" transform="translate(13.550650, 11.114335) rotate(-9.000000) translate(-13.550650, -11.114335) "></path>
                                <path d="M12.5903979,5.77973614 C15.5902829,5.64219255 17.5864161,5.37180991 18.5787976,4.96858824" id="路径-46" stroke="#0F1358" stroke-width="0.628035035" transform="translate(15.584598, 5.374162) rotate(-9.000000) translate(-15.584598, -5.374162) "></path>
                                <path d="M13.1710038,9.73343892 C18.3173217,9.56852425 21.8151236,8.98802379 23.6644094,7.99193753" id="路径-47" stroke="#0F1358" stroke-width="0.628035035" transform="translate(18.417707, 8.862688) rotate(-9.000000) translate(-18.417707, -8.862688) "></path>
                                <path d="M13.2350551,14.4135215 C19.3873233,13.3894868 22.8463298,12.3812475 23.6120746,11.3888035" id="路径-48" stroke="#0F1358" stroke-width="0.628035035" transform="translate(18.423565, 12.901162) rotate(-9.000000) translate(-18.423565, -12.901162) "></path>
                            </g>
                            <g id="路径-53" stroke-width="1" fill="none" transform="translate(66.360502, 29.271982)">
                                <mask id="mask-6" fill="white">
                                    <use xlink:href="#path-5"></use>
                                </mask>
                                <use id="蒙版" fill="#B5BAFF" transform="translate(50.909142, 37.090019) scale(-1, 1) rotate(-12.000000) translate(-50.909142, -37.090019) " xlink:href="#path-5"></use>
                            </g>
                            <g id="编组-14" stroke-width="1" fill="none" transform="translate(71.290881, 29.333395)" stroke-linecap="round">
                                <path d="M93.6906818,47.3890518 C91.1572661,44.7344373 88.7448393,43.5609777 86.4534015,43.868673 C68.7144982,47.7580061 58.7259965,47.3522393 50.5750559,43.2878909 C43.4061008,39.7131954 33.7313447,31.0425504 21.5507875,17.2759558 C21.2147156,16.8961237 20.8767362,16.5124124 20.5368491,16.1248217 C19.6385052,15.1003939 18.2610064,13.502777 16.4043526,11.3319708 C13.0353362,8.12275622 9.6442079,9.36178839 6.2309678,15.0490673 C3.31545388,19.9070147 2.25212621,24.611613 4.06812364,29.5799363" id="路径" stroke="#0F1358" stroke-width="0.628035035" transform="translate(48.432254, 28.492271) scale(-1, 1) rotate(-12.000000) translate(-48.432254, -28.492271) "></path>
                                <path d="M3.58974359,50.8023505 C9.43748566,55.2606368 15.6265419,59.2287553 21.2130207,60.6991242 C31.8875451,63.5086739 34.1747966,62.7133737 42.1410487,60.9447041 C47.2058315,59.8202196 56.5510014,56.5862797 62.686524,54.3797178" id="路径" stroke="#0F1358" stroke-width="0.628035035" transform="translate(33.138134, 56.673608) scale(-1, 1) rotate(-12.000000) translate(-33.138134, -56.673608) "></path>
                            </g>
                        </g>
                    </g>
                </g>
                <g id="编组-13备份" transform="translate(58.000000, 71.000000)" stroke="#AEB9FF" stroke-linecap="round" stroke-width="1.43589744">
                    <path d="M12.1492715,85.2972485 C17.1742254,120.733929 67.5332825,124.442076 65.8381231,177.313706" id="路径" stroke-dasharray="4.307692478864621,3.58974358974359" transform="translate(39.014614, 131.305477) rotate(-6.000000) translate(-39.014614, -131.305477) "></path>
                    <path d="M73.7536088,190.465085 C55.5989792,287.646935 161.738868,301.486289 239.306972,272.035354" id="路径" transform="translate(155.503928, 238.118358) rotate(-6.000000) translate(-155.503928, -238.118358) "></path>
                    <path d="M343.451022,158.678123 C350.998532,147.175378 356.531709,136.184537 360.694137,126.060096" id="路径" stroke-dasharray="4.307692478864621,3.58974358974359" transform="translate(352.072580, 142.369109) rotate(-6.000000) translate(-352.072580, -142.369109) "></path>
                    <path d="M361.460364,104.589134 C370.282614,71.550924 341.75492,42.3156157 263.700031,37.7908888" id="路径" transform="translate(313.351894, 71.190012) rotate(-6.000000) translate(-313.351894, -71.190012) "></path>
                    <path d="M227.87997,46.7635208 C197.272167,42.3523217 182.478119,34.6407079 165.861398,24.4966041" id="路径" stroke-dasharray="4.307692478864621,3.58974358974359" transform="translate(196.870684, 35.630062) rotate(-6.000000) translate(-196.870684, -35.630062) "></path>
                    <path d="M130.226239,17.7390719 C83.1858819,-6.23984126 12.6677074,10.7967551 2.87179487,67.0455027" id="路径" transform="translate(66.549017, 37.112495) rotate(-6.000000) translate(-66.549017, -37.112495) "></path>
                    <polyline id="路径-62" points="0 66.4674807 6.13749678 73.7439401 13.4605518 68.1608758"></polyline>
                    <polyline id="路径-7" points="264.51518 37.7793306 256.772486 42.6268627 263.323997 49.2866502"></polyline>
                    <polyline id="路径-7备份" transform="translate(239.179039, 264.394685) rotate(-225.000000) translate(-239.179039, -264.394685) " points="243.050386 258.641026 235.307692 263.488558 241.859203 270.148345"></polyline>
                </g>
                <path d="M195.553108,190.827226 L215.766759,195.386261 C211.59597,196.228617 207.65305,206.141886 214.553807,210.770345 C221.454565,215.398804 229.364147,214.139752 232.093887,208.049273 C233.868219,204.090461 233.202095,200.326467 230.095517,196.75729 L229.851736,196.483122 L250.379053,198.350207 L247.370421,221.859673 C248.60834,218.307554 254.155023,215.787507 259.481338,220.103562 C264.807654,224.419617 263.33216,237.222323 255.724621,239.249989 C250.741905,240.578051 247.492829,238.036046 245.977392,231.623973 L245.897867,231.276767 L243.491682,254.404563 L190.899246,248.65389 L192.695248,226.336841 C194.362365,231.498276 197.455305,233.476792 201.974068,232.272389 C209.581607,230.244724 211.057102,217.442017 205.730786,213.125962 C200.40447,208.809907 194.857787,211.329954 193.619868,214.882073 L195.553108,190.827226 Z" id="路径" fill="#EAEFFE" transform="translate(226.775083, 222.615895) rotate(177.000000) translate(-226.775083, -222.615895) "></path>
                <g id="编组-17备份" transform="translate(379.221703, 270.584026) rotate(-13.000000) translate(-379.221703, -270.584026) translate(347.721703, 240.084026)">
                    <path d="M17.4835233,5.25995959 C20.3527812,3.56026072 23.7708138,2.29736096 27.7376211,1.47126032 C29.2578798,1.15466146 30.8325053,0.834318499 32.3714676,1.03281467 C32.7903453,1.08684173 33.0176378,1.71857023 33.016147,2.15208644 C33.0035852,5.78487246 33.0039315,25.4209943 32.1958506,28.3204602 C32.075352,28.7528194 31.2245497,28.173998 30.9848798,27.797718 C29.3880964,25.2907799 19.3133498,10.4713376 18.3584058,8.88140666 C17.9389282,8.18299884 17.6553251,7.75355824 17.146344,7.1209973 C17.146344,7.1209973 17.146344,7.1209973 17.146344,7.1209973 C16.7130989,6.58256084 16.7983733,5.79485727 17.3368097,5.36161212 C17.3832233,5.32426607 17.4322446,5.29028213 17.4834996,5.25991959 Z" id="路径-59" fill="#BEC4FE" transform="translate(24.933957, 14.722823) rotate(-4.000000) translate(-24.933957, -14.722823) "></path>
                    <path d="M16.0572247,10.0075148 C17.9752676,12.4874121 22.3201212,18.3238901 29.0917855,27.5169488 C29.8946021,28.6068345 31.6579447,30.6973598 31.6576344,32.2990888 C31.6573242,33.9008177 16.5174213,47.5420226 14.3294841,49.985338 C13.976835,50.3791487 13.5871336,50.8101867 13.0825161,50.9625129 C8.76563444,52.2656272 4.91406811,42.4614528 3.94840729,38.8390893 C1.91811643,31.2231112 1.58086627,24.2093432 5.86536489,17.644997 C9.06089913,12.7490698 8.81873494,13.3085861 13.5521903,9.52717062 C14.3889007,9.03290677 15.4626967,9.23880322 16.0572247,10.0075148 Z" id="路径-60" fill="#BEC4FE" transform="translate(17.079338, 29.880829) rotate(-5.000000) translate(-17.079338, -29.880829) "></path>
                    <path d="M16.4629122,53.4993477 C18.4886249,51.4649709 33.91585,32.8023643 34.8439506,31.4367742 C35.5840723,30.347773 35.9752218,9.65524045 36.3230501,3.31409243 C36.3645818,2.55694182 37.8053057,3.11511849 38.5330884,3.23514084 C39.4788735,3.39111509 40.3776822,3.8144523 41.2712565,4.13012636 C48.3801115,6.64148004 55.4522143,11.0067236 59.6206217,18.6215742 C62.8571385,24.5340463 63.1122478,26.8161445 62.6168215,33.5469892 C62.2079456,39.1019631 58.98324,46.2737538 55.6287689,50.4152655 C49.0391248,58.5510006 42.4839297,61.0622292 35.268179,60.9538739 C28.1088898,60.8463664 24.4549888,58.8620686 18.2388179,55.2483504 L16.4629122,53.4993477 Z" id="路径-61" fill="#DBDDFF"></path>
                </g>
                <g id="编组-6备份" transform="translate(193.128205, 204.256410)">
                    <path d="M36.3893326,106.81294 L55.2795421,9.66707122 C56.3704539,4.05688631 61.292179,0.0121614086 67.0074201,0.0289791712 L167.327097,0.324181509 C171.603251,0.336764588 175.059557,3.81347243 175.046974,8.08962583 C175.046209,8.34952585 175.032359,8.60922255 175.005475,8.86772957 L163.558257,118.94173 C163.337355,121.065868 161.547071,122.679626 159.411477,122.679626 L3.57355115,122.679626 C1.59993335,122.679626 -3.31696898e-14,121.079692 -3.38554775e-14,119.106075 L-3.38554775e-14,113.364451 C-4.23328297e-14,109.746151 2.93321114,106.81294 6.55151044,106.81294 L36.3893326,106.81294 L36.3893326,106.81294 Z" id="路径-12" fill="#0F1358"></path>
                    <path d="M77.7355564,7.49648511 C65.6952832,7.28294854 63.7478049,9.28326068 61.4471073,12.4900148 C59.9133089,14.6278508 55.5468664,37.2952698 48.3477799,80.4922717 C46.0177882,91.3405454 46.0177882,96.7429539 48.3477799,96.6994971 C79.6323467,97.9073657 103.317577,98.6531106 143.769902,98.1023948 C145.159988,98.0834702 156.170319,97.4983823 157.505444,96.7646822 C161.892846,94.3536455 161.892846,80.7565768 162.729202,72.0207107 C163.565559,63.2848446 165.297949,51.7767259 166.715437,39.7588317 C168.132926,27.7409375 174.573803,7.71002168 156.154744,7.49648511 C137.735685,7.28294854 89.7758296,7.71002168 77.7355564,7.49648511 Z" id="路径-25" stroke="#FFFFFF" stroke-width="1.19118372" fill="#CFDAFF"></path>
                    <path d="M39.8802926,106.960325 L97.1034282,108.358977 C147.318002,109.234395 167.932889,109.5623 158.94809,109.342693" id="路径-27" stroke="#FFFFFF" stroke-width="1.19118372" stroke-linecap="round"></path>
                    <path d="M125.07429,114.949229 L125.07429,117.220551 C125.07429,117.549487 125.340946,117.816143 125.669882,117.816143 L130.586186,117.816143 C130.88365,117.816143 131.135505,117.596666 131.176182,117.301996 L131.312419,116.315086 L131.312419,116.315086 L131.489723,115.030674 C131.534704,114.704827 131.307017,114.404213 130.981171,114.359232 C130.954182,114.355506 130.92697,114.353637 130.899726,114.353637 L125.669882,114.353637 C125.340946,114.353637 125.07429,114.620292 125.07429,114.949229 Z" id="路径-32" fill="#FFFFFF"></path>
                    <path d="M136.522491,114.949229 L136.522491,117.220551 C136.522491,117.549487 136.789146,117.816143 137.118082,117.816143 L143.490206,117.816143 C143.750135,117.816143 143.980043,117.647578 144.058221,117.399684 L144.774522,115.128362 C144.873454,114.814656 144.699346,114.480146 144.38564,114.381214 C144.327686,114.362937 144.267275,114.353637 144.206507,114.353637 L137.118082,114.353637 C136.789146,114.353637 136.522491,114.620292 136.522491,114.949229 Z" id="路径-33" fill="#FFFFFF"></path>
                    <path d="M148.040594,114.775149 L147.34642,117.046472 C147.250279,117.361044 147.427352,117.693994 147.741925,117.790135 C147.798343,117.807378 147.85701,117.816143 147.916004,117.816143 L154.97822,117.816143 C155.307156,117.816143 155.573812,117.549487 155.573812,117.220551 L155.573812,114.949229 C155.573812,114.620292 155.307156,114.353637 154.97822,114.353637 L148.610178,114.353637 C148.348295,114.353637 148.117137,114.524701 148.040594,114.775149 Z" id="路径-33备份" fill="#FFFFFF"></path>
                    <line x1="103.037391" y1="110.167402" x2="103.037391" y2="120.888055" id="路径-28" stroke="#FFFFFF" stroke-width="1.19118372" stroke-linecap="round"></line>
                    <path d="M88.8782587,62.2967492 C89.185272,62.2967492 107.008004,52.3608683 142.346454,32.4891065" id="路径-29" stroke="#FFFFFF" stroke-width="2.97795929" stroke-linecap="round"></path>
                    <path d="M100.655024,74.2323792 C101.537133,74.2323792 114.766341,67.1517806 140.342648,52.9905833" id="路径-30" stroke="#FFFFFF" stroke-width="2.97795929" stroke-linecap="round"></path>
                    <line x1="102.4418" y1="37.9346813" x2="123.287515" y2="27.3801334" id="路径-31" stroke="#FFFFFF" stroke-width="2.97795929" stroke-linecap="round"></line>
                </g>
                <path d="M177.873771,212.60182 C177.873771,212.60182 204.196736,179.300343 232.191843,206.999155 C260.18695,234.697968 264.445628,255.671038 277.71522,254.920681 C290.984813,254.170325 288.045039,244.881718 285.326766,237.886155 C282.608494,230.890593 274.101942,229.339299 273.47438,235.827783 C272.846819,242.316267 278.832564,262.414791 287.099924,270.00946 C295.367284,277.604128 312.300172,283.679259 327.455494,282.925158" id="路径-34备份" stroke="#FCAA6D" stroke-width="1.6" stroke-linecap="round" transform="translate(252.664632, 239.489389) scale(1, -1) rotate(100.000000) translate(-252.664632, -239.489389) "></path>
                <g id="编组-12备份-2" transform="translate(227.589744, 110.205128)">
                    <g id="编组-5" transform="translate(44.141684, 32.818427)">
                        <mask id="mask-8" fill="white">
                            <use xlink:href="#path-7"></use>
                        </mask>
                        <use id="蒙版" fill="#5165E8" xlink:href="#path-7"></use>
                        <g mask="url(#mask-8)" fill="#CFDAFF">
                            <g transform="translate(5.077026, 5.727124)">
                                <circle id="椭圆形" cx="11.9118372" cy="45.2649812" r="1.78677557"></circle>
                                <circle id="椭圆形备份-19" cx="2.38236743" cy="50.625308" r="1.78677557"></circle>
                                <circle id="椭圆形备份-25" cx="8.93387787" cy="61.9415533" r="1.78677557"></circle>
                                <circle id="椭圆形备份-20" cx="15.4853883" cy="54.1988591" r="1.78677557"></circle>
                                <circle id="椭圆形备份-21" cx="25.014858" cy="41.0958382" r="1.78677557"></circle>
                                <circle id="椭圆形备份-22" cx="42.8826138" cy="20.2501232" r="1.78677557"></circle>
                                <circle id="椭圆形备份-23" cx="17.8677557" cy="5.36032672" r="1.78677557"></circle>
                                <circle id="椭圆形备份-24" cx="39.3090626" cy="6.55151044" r="1.78677557"></circle>
                                <circle id="椭圆形备份-2" cx="17.2721639" cy="38.7134708" r="1.19118372"></circle>
                                <circle id="椭圆形备份-3" cx="23.8236743" cy="24.4192662" r="1.19118372"></circle>
                                <circle id="椭圆形备份-4" cx="32.7575522" cy="23.2280825" r="1.19118372"></circle>
                                <circle id="椭圆形备份-5" cx="38.1178789" cy="33.3531441" r="1.19118372"></circle>
                                <circle id="椭圆形备份-6" cx="48.2429405" cy="41.0958382" r="1.19118372"></circle>
                                <circle id="椭圆形备份-7" cx="58.3680021" cy="26.8016336" r="1.19118372"></circle>
                                <circle id="椭圆形备份-9" cx="57.1768184" cy="38.7134708" r="1.19118372"></circle>
                                <circle id="椭圆形备份-18" cx="1.19118372" cy="38.1178789" r="1.19118372"></circle>
                                <circle id="椭圆形备份-8" cx="45.8605731" cy="28.5884092" r="1.19118372"></circle>
                                <circle id="椭圆形备份-10" cx="26.2060418" cy="6.55151044" r="1.19118372"></circle>
                                <circle id="椭圆形备份-12" cx="35.7355115" cy="1.19118372" r="1.19118372"></circle>
                                <circle id="椭圆形备份-13" cx="45.8605731" cy="1.19118372" r="1.19118372"></circle>
                                <circle id="椭圆形备份-14" cx="46.4561649" cy="8.93387787" r="1.19118372"></circle>
                                <circle id="椭圆形备份-15" cx="53.6032672" cy="10.1250616" r="1.19118372"></circle>
                                <circle id="椭圆形备份-16" cx="53.6032672" cy="2.38236743" r="1.19118372"></circle>
                                <circle id="椭圆形备份-17" cx="28.5884092" cy="51.2208998" r="1.19118372"></circle>
                                <circle id="椭圆形备份-11" cx="36.9266952" cy="14.8897965" r="1.19118372"></circle>
                            </g>
                        </g>
                    </g>
                    <g id="编组-2" transform="translate(40.986980, 40.715666) scale(-1, 1) rotate(45.000000) translate(-40.986980, -40.715666) translate(15.986980, 8.715666)">
                        <path d="M17.4498664,34.8143355 C16.5949266,28.3333015 19.1751967,23.8505366 25.1906765,21.3660407 C29.3327052,21.425995 34.3881804,21.2915614 35.7456805,19.5899733 C37.1031807,17.8883851 38.6108618,26.3277185 43.4861816,22.1080518 C48.3615014,17.8883851 50.3271419,12.9267073 46.9066618,11.3400829 C44.6263417,10.2823334 43.4861816,10.0926843 43.4861816,10.7711356 C45.3318215,4.96525661 42.9242905,1.49295775 36.2635886,0.354239042 C26.2725358,-1.35383902 15.7045532,2.98017343 9.85398405,16.3002155 C8.96381663,18.8972029 8.59629554,21.3883948 8.75142075,23.7737911 C6.13060396,20.9845792 3.59403162,20.6973882 1.14170374,22.912218 C-0.408312372,24.7891363 -0.135948078,26.3325636 1.95879662,27.5424999 C0.848224304,29.2271434 0.57586001,30.9984095 1.14170374,32.8562981 C1.99046933,35.6431311 7.90547338,33.8418348 9.27069889,32.8562981 C10.6359244,31.8707615 7.19170484,53.1233073 25.5487963,53.1233073 L25.5487963,49.7340378 L22.5474942,46.5762617 L19.5461921,43.4184856 L17.4498664,34.8143355 Z" id="路径-3" fill="#BEC4FE"></path>
                        <path d="M36.4713879,18.1674176 C36.4713879,18.1674176 39.5224359,19.0522002 43.2279128,21.9304925 C44.5945966,22.9920873 46.8122659,25.2097567 49.8809208,28.5835005 L45.4010282,32.5340879 C50.2740342,39.1859871 49.3407745,43.89402 42.6012492,46.6581864 C39.2065709,47.9839988 36.4565205,48.7907198 34.3510981,49.0783495 L34.3510981,58.8809046 L28.9828555,63.7283288 L21.3990601,54.8553909 L23.5174111,48.2490995 C21.8500118,46.2850703 20.3716841,44.8782978 19.0824282,44.0287821 C18.6494186,43.7434637 16.2163797,46.9302804 13.4739496,46.9302804 C9.48098851,46.9302804 6.78470419,44.4008034 6.0697184,42.7012153 C5.69055964,41.7999194 2.74515439,36.9084045 6.799328,33.3553139 C8.88381496,31.5284629 10.5863062,31.1708786 11.880472,31.3028934 C13.1033633,31.4276376 13.9616667,31.9895379 14.4331674,32.1620376 C15.0124405,32.373966 17.353528,34.5688459 17.353528,33.9587697 C17.353528,33.0108779 16.3330036,31.1892025 16.2592929,28.8546467 C16.2170477,27.5166615 16.3141996,24.4660734 18.0288033,22.7514697 C26.8145828,13.9656903 36.4713879,18.1674176 36.4713879,18.1674176 Z" id="路径-2" fill="#FFFFFF"></path>
                        <path d="M19.0824282,40.3682072 C20.0065497,41.4922205 20.0065497,42.7124121 19.0824282,44.0287821 C17.1717292,45.9631143 15.3022363,46.9302804 13.4739496,46.9302804 C9.48098851,46.9302804 6.78470419,44.4008034 6.0697184,42.7012153 C5.69055964,41.7999194 2.74515439,36.9084045 6.799328,33.3553139 C10.1095638,30.4542127 12.4290382,31.0058365 14.7101676,32.2226038" id="路径" stroke="#0F1358" stroke-width="0.64698811" fill="#FFFFFF" stroke-linecap="round" stroke-linejoin="round"></path>
                        <path d="M36.4713879,18.1674176 C36.4713879,18.1674176 43.8020965,21.4478854 49.8809208,28.5835005 L45.4010282,32.5340879 C50.2740342,39.1859871 49.3407745,43.89402 42.6012492,46.6581864 C39.2065709,47.9839988 36.4565205,48.7907198 34.3510981,49.0783495 L34.3510981,58.8809046 L28.9828555,63.7283288 L21.3990601,54.8553909 L23.5174111,48.2490995 C21.8500118,46.2850703 20.3716841,44.8782978 19.0824282,44.0287821" id="路径" stroke="#0F1358" stroke-width="0.64698811" stroke-linecap="round" stroke-linejoin="round"></path>
                        <path d="M9.90539436,42.7012153 C9.90539436,42.7012153 7.03028138,41.2510114 8.49043161,37.9221534 C9.46386509,35.7029148 11.2675328,35.0853934 13.9014347,36.0695893" id="路径-5" stroke="#0F1358" stroke-width="0.64698811" stroke-linecap="round"></path>
                        <path d="M10.5047449,35.9078401 C10.2695871,39.168456 11.3479006,41.2172516 13.7396855,42.0542271" id="路径-6" stroke="#0F1358" stroke-width="0.64698811" stroke-linecap="round"></path>
                        <path d="M17.7006846,22.9296463 C20.2119765,20.9945746 27.4177614,18.0619645 35.6939751,17.8170744 C37.6195144,17.7600984 41.3272976,14.0375894 38.5106364,12.1488318 C35.6939751,10.2600743 36.2107881,13.0151959 36.6530683,13.2931198 C42.6300551,17.0489912 45.2306142,6.94308141 42.865499,3.94724919 C40.5003838,0.951416961 37.0915864,4.44353142e-14 35.03896,4.44353142e-14" id="路径-8" stroke="#0F1358" stroke-width="0.64698811" fill="#BEC4FE" stroke-linecap="round"></path>
                        <path d="M8.15220523,23.1806613 C7.40706838,22.3823929 6.31579338,21.7586262 4.57446776,21.7066293 C1.41805922,21.6123774 -0.58440729,23.970839 0.152935173,25.8758488 C0.553622723,26.9110716 2.02302761,28.1661608 3.33009442,27.7887218 C3.59695038,27.7116623 4.02766002,27.2378148 3.7900846,27.0939114 C1.57776709,25.7538738 -1.77187194,35.1548527 4.91772177,34.1445923 C6.04407944,33.9744902 8.5637806,32.0987619 7.97145614,30.1001099" id="路径-4" stroke="#0F1358" stroke-width="0.64698811" stroke-linecap="round"></path>
                        <ellipse id="椭圆形" fill="#0F1358" transform="translate(36.144257, 26.209677) rotate(-22.000000) translate(-36.144257, -26.209677) " cx="36.1442565" cy="26.2096775" rx="2.42620541" ry="4.16914301"></ellipse>
                        <path d="M38.0600001,38.1944509 C38.3454616,42.9035846 41.4995099,42.8850387 43.7771742,39.1079978" id="路径-9" stroke="#0F1358" stroke-width="0.64698811" stroke-linecap="round" transform="translate(40.918587, 40.018429) scale(-1, 1) translate(-40.918587, -40.018429) "></path>
                    </g>
                    <path d="M108.097032,34.462445 C119.522299,34.1059758 126.359521,34.8571971 128.608699,36.7161087 C132.442986,39.885089 129.999206,66.3191941 128.608699,73.5955571 C127.917182,77.2141876 125.651465,86.6087919 123.001401,90.8932714 C120.322702,95.2240478 116.811878,93.6278312 115.443603,94.4254348 C114.075328,95.2230384 114.046192,95.5176126 112.925392,96.766844 C111.804591,98.0160754 111.900314,99.879712 109.744301,100.096483 C107.588288,100.313255 106.009426,97.5790833 108.298747,94.1922348 C107.131693,93.9957576 106.195425,94.8539606 105.489944,96.766844 C104.713888,99.7125143 103.473125,101.003872 101.767654,100.640916 C100.495332,100.370143 99.7150528,99.830443 99.7090422,98.2375045 C99.7087955,98.1721349 99.7775965,96.5878363 100.14641,95.6821306 C100.280354,95.3532024 101.128244,93.3306187 100.773732,93.3579368 C100.152093,93.4058393 98.0055393,95.8821361 97.3853735,97.0982636 C96.4115357,99.0079316 95.3534739,101.471037 92.9952162,100.096483 C90.6369585,98.7219294 93.1365347,95.8674059 92.4072239,96.2168844 C91.677913,96.5663629 88.822042,96.4193142 88.822042,95.0331991 C88.822042,93.647084 89.7096347,92.7351072 90.9290642,91.7890029 C91.7420172,91.1582666 93.5451943,90.6384334 96.3385954,90.2295031 C99.3144131,87.568263 101.515808,86.1256432 102.942781,85.901644 C106.746602,85.3045388 118.753498,47.2947947 116.869001,46.8548096 C115.748358,46.5931659 112.111781,47.7314727 108.862923,47.902912 L108.097032,34.462445 Z" id="路径-13" fill="#FFFFFF"></path>
                    <path d="M108.097032,34.462445 C119.522299,34.1059758 126.359521,34.8571971 128.608699,36.7161087 C132.442986,39.885089 129.999206,66.3191941 128.608699,73.5955571 C127.917182,77.2141876 125.651465,86.6087919 123.001401,90.8932714 C120.322702,95.2240478 116.811878,93.6278312 115.443603,94.4254348 C114.075328,95.2230384 114.046192,95.5176126 112.925392,96.766844 C111.804591,98.0160754 111.900314,99.879712 109.744301,100.096483 C107.588288,100.313255 106.009426,97.5790833 108.298747,94.1922348 C107.131693,93.9957576 106.195425,94.8539606 105.489944,96.766844 C104.713888,99.7125143 103.473125,101.003872 101.767654,100.640916 C100.495332,100.370143 99.9963662,99.7081651 99.7090422,98.2375045 C99.5174929,97.2570642 100.105751,95.4229317 101.473815,92.7351072 C99.7090422,93.5555698 98.0345987,95.8251516 97.3853735,97.0982636 C96.4115357,99.0079316 94.7065454,101.0129 92.9952162,100.096483 C91.2838871,99.1800667 91.8459638,97.5790833 92.4072239,96.2168844 C95.883873,90.3096339 99.5580716,86.8842048 103.42982,85.9405972 C109.237442,84.5251858 109.743835,85.1923945 114.476005,85.1923945 M102.942781,85.901644 C106.746602,85.3045388 118.753498,47.2947947 116.869001,46.8548096 C115.748358,46.5931659 112.111781,47.7314727 108.862923,47.902912" id="形状" stroke="#0F1358" stroke-width="0.595591858" stroke-linecap="round" stroke-linejoin="round"></path>
                    <path d="M46.6158,107.318002 C41.4495631,133.733455 41.9281084,128.819092 38.5242921,163.846175 C37.4581916,174.816918 36.1195728,185.765372 48.1042079,189.690116 L50.541873,189.690116 C52.5924627,197.463103 54.3991595,201.349596 55.9619632,201.349596 C56.882544,201.349596 58.1091658,200.367546 58.3684135,199.601779 C58.9908053,197.763355 58.9908053,192.419014 58.3684135,183.568754 C62.5983197,181.72531 63.8767993,178.823209 62.2038521,174.86245 C59.6944313,168.921311 57.3074468,115.198166 61.6728154,105.285781 L46.6158,105.294901 C46.6158,105.744479 46.6158,106.418846 46.6158,107.318002 Z" id="路径-14" fill="#FFFFFF"></path>
                    <path d="M46.6158,105.294901 C46.6158,105.744479 46.6158,106.418846 46.6158,107.318002 C41.4495631,133.733455 41.9281084,128.819092 38.5242921,163.846175 C37.4581916,174.816918 36.1195728,185.765372 48.1042079,189.690116 L50.541873,189.690116 C52.5924627,197.463103 54.3991595,201.349596 55.9619632,201.349596 C56.882544,201.349596 58.1091658,200.367546 58.3684135,199.601779 C58.9908053,197.763355 58.9908053,192.419014 58.3684135,183.568754 C62.5983197,181.72531 63.8767993,178.823209 62.2038521,174.86245 C59.6944313,168.921311 57.1475993,115.207286 61.512968,105.294901" id="路径" stroke="#0F1358" stroke-width="0.595591858"></path>
                    <path d="M60.6059928,65.9672869 L70.8973306,57.3586399 C71.4019649,56.9365503 71.4688507,56.1852894 71.0467409,55.680672 C71.036717,55.6686887 71.0264582,55.6569037 71.0159707,55.645324 C66.7667652,50.953605 64.3587963,48.5054654 63.7920639,48.3009051 C62.672453,47.8967851 61.2186092,49.2820814 60.6059928,49.9420615 C59.5513762,51.0782145 59.2475224,52.541067 59.6944313,54.3306191 L60.6059928,65.9672869 Z" id="路径-10" stroke="#0F1358" stroke-width="0.595591858" fill="#BDC4FE"></path>
                    <path d="M60.6059928,65.9672869 L59.8678097,76.483207 C59.8217426,77.1394647 59.2523958,77.6341219 58.5961381,77.5880547 C58.3266311,77.5691362 58.0715608,77.4591626 57.872789,77.2761827 L52.0029526,71.8726887 C51.8088788,71.694005 51.6795926,71.4559616 51.6353908,71.1958872 C51.2140039,68.7165348 51.7963488,67.0964261 53.3824255,66.3355611 L60.6059928,65.9672869 Z" id="路径-11" stroke="#0F1358" stroke-width="0.595591858" fill="#BDC4FE"></path>
                    <path d="" id="路径-16" stroke="#979797" stroke-width="0.595591858"></path>
                    <path d="M108.298747,94.1922348 C109.372068,93.1043383 110.541505,92.303261 111.807058,91.7890029" id="路径-17" stroke="#0F1358" stroke-width="0.595591858" stroke-linecap="round"></path>
                    <path d="M101.473815,92.7351072 C102.116625,91.4106732 102.714086,90.5626578 103.266201,90.1910613 C105.653887,88.5840459 107.68672,88.7115001 108.298747,88.7115001" id="路径-18" stroke="#0F1358" stroke-width="0.595591858" stroke-linecap="round"></path>
                    <path d="M96.6254457,90.2023657 C92.7730318,90.8210216 90.3524503,91.8977355 89.3637011,93.4325074 C87.8805772,95.7346651 90.2995425,96.6991036 92.4072239,96.2168844" id="路径-15" stroke="#0F1358" stroke-width="0.595591858" stroke-linecap="round"></path>
                    <line x1="57.629008" y1="177.585164" x2="58.3684135" y2="183.568754" id="路径-19" stroke="#0F1358" stroke-width="0.595591858" stroke-linecap="round"></line>
                    <line x1="48.5167619" y1="182.022456" x2="50.541873" y2="189.690116" id="路径-20" stroke="#0F1358" stroke-width="0.595591858" stroke-linecap="round"></line>
                    <path d="M43.0001762,183.083223 C44.1202123,186.006387 45.4410537,188.046841 46.9627003,189.204585" id="路径-21" stroke="#0F1358" stroke-width="0.595591858" stroke-linecap="round"></path>
                    <path d="M60.6059928,66.0054821 C78.9202049,73.2208455 91.6547714,80.5600177 98.8096922,88.0229988" id="路径-22" stroke="#0F1358" stroke-width="0.595591858"></path>
                    <polygon id="路径-23" fill="#BEC4FE" points="107.965599 32.8184269 104.285348 31.3060981 105.035594 53.7473244 109.034522 52.2926631"></polygon>
                    <polygon id="路径-24" fill="#BEC4FE" points="44.1416839 105.285781 43.0313533 99.6098942 68.49135 101.082661 67.606652 105.285781"></polygon>
                </g>
                <path d="M249.487179,296.486755 C257.947352,298.1791 257.474477,297.176253 261.349286,292.82702 C265.224096,288.477787 257.357618,297.216706 265.626793,304.77368 C260.549207,302.004794 256.368721,303.228498 253.085335,308.444793 C254.041816,303.398836 252.842431,299.412823 249.487179,296.486755 Z" id="路径-35备份" fill="#FFFFFF" transform="translate(257.556986, 300.055730) rotate(209.000000) translate(-257.556986, -300.055730) "></path>
                <g id="编组-16备份" transform="translate(97.000000, 244.000000)">
                    <path d="M35.3642691,49.3148641 L43.0842128,34.2975837 L47.919773,24.9384289 C48.3979126,24.0149539 49.9261417,23.1775316 51.3328395,23.0679939 C51.4348495,23.06005 51.5346885,23.0561369 51.6318176,23.0562758 L80.5094021,23.0975753 L85.2992087,19.3846154 L103.276408,20.0102864 C104.583082,20.0557439 105.096212,20.8455656 104.422378,21.7744026 C104.388077,21.8216824 104.350982,21.8688435 104.311193,21.9157604 L80.6797656,49.6710265 C80.4488041,49.9412223 79.9837486,50.1463276 79.5772212,50.1572909 L37.4092424,51.2936952 C35.658731,51.340837 34.7678635,50.4789283 35.3642691,49.3148641 Z" id="路径-58备份" fill="#0F1358"></path>
                    <path d="M6.57760155,50.595121 L2.75999982,24.7650782 L2.75999982,24.7650782 L0.365485095,8.56369772 C0.191564531,7.38694437 1.00452113,6.29200682 2.18127448,6.11808626 C2.28671279,6.1025028 2.3931624,6.09476728 2.49974594,6.09494347 L45.418965,6.16589139 L45.418965,6.16589139 L48.7343239,0 L76.5318414,1.09180443 C77.7204613,1.13848992 78.646182,2.13990279 78.5994966,3.32852269 C78.5959392,3.41909418 78.586668,3.50935079 78.5717383,3.59875411 L70.7411772,50.4905365 C70.6848236,50.827999 70.39817,51.078811 70.056213,51.0898567 L9.51124979,53.0455375 C8.05284314,53.0926459 6.7909445,52.0386078 6.57760155,50.595121 Z" id="路径-58" fill="#BEC4FE"></path>
                    <g id="编组-15" transform="translate(34.717949, 27.564103)" fill="#FFFFFF" fill-rule="nonzero">
                        <path d="M5.79300342,0.505717651 C2.01977271,0.954587663 0.471494673,3.60626334 0.292221443,5.7405051 C0.255384489,6.18019049 0.318723582,6.64508013 0.480499284,7.12278541 C0.808143598,8.089303 1.52932951,9.09031619 2.56629004,10.0176391 C4.26795312,11.539397 6.53608686,12.5729834 7.84492464,12.4211173 C8.19078281,12.3809615 8.43840905,12.2595327 8.58094767,12.0601417 C9.13227423,11.2887432 9.21628296,10.5660444 9.3052033,9.80073333 C9.38603996,9.10548145 9.46953707,8.38630695 9.89213891,7.62056867 C10.0481844,7.33755522 10.2400436,7.05817292 10.4786653,6.76682926 C10.6833151,6.51681625 10.8952299,6.28976473 11.1003913,6.07018904 C11.646397,5.48536582 12.1180125,4.98010671 12.2459186,4.27385471 C12.2735463,4.12134785 12.2852114,3.96969536 12.281323,3.81067381 C12.2624952,3.00435249 11.9533717,2.32330469 11.3627524,1.78675397 C10.4207494,0.931305822 8.33311675,0.203053508 5.79310575,0.505717651" id="路径"></path>
                    </g>
                    <path d="M48.7343239,0 L76.5318414,1.09180443 C77.7204613,1.13848992 78.646182,2.13990279 78.5994966,3.32852269 C78.5959392,3.41909418 78.586668,3.50935079 78.5717383,3.59875411 L76.859052,13.851 L1.44405201,15.864 L0.365485095,8.56369772 C0.191564531,7.38694437 1.00452113,6.29200682 2.18127448,6.11808626 C2.28671279,6.1025028 2.3931624,6.09476728 2.49974594,6.09494347 L45.418965,6.16589139 L48.7343239,0 Z" id="形状结合" fill="#CFDAFF"></path>
                    <path d="M60.0818497,0.445697317 C61.3580899,0.495824266 62.3152701,0.533419479 62.9533902,0.558482953 M65.8790247,0.673393239 C67.729407,0.746070795 71.2803459,0.885541193 76.5318414,1.09180443 C77.7204613,1.13848992 78.646182,2.13990279 78.5994966,3.32852269 C78.5959392,3.41909418 78.586668,3.50935079 78.5717383,3.59875411 L70.7411772,50.4905365 C70.6848236,50.827999 70.39817,51.078811 70.056213,51.0898567 C49.1297316,51.7658092 33.4348706,52.2727735 22.9716299,52.6107498 M45.418965,6.16589139 L48.7343239,4.08106597e-13" id="形状" stroke="#0F1358" stroke-width="0.6" stroke-linecap="round"></path>
                </g>
                <path d="M198.153846,151.846154 C198.777616,159.776654 199.225893,164.310501 199.498678,165.447694 L201.085944,162.239715 L202.74324,167.739045 L205.024451,164.917042 L202.769488,160.115956 L205.690267,158.797293 L198.153846,151.846154 Z" id="路径-55备份" fill="#0F1358"></path>
                <line x1="216.176578" y1="138.923077" x2="205.333333" y2="147.932097" id="路径-56备份" stroke="#FCAA6D" stroke-width="2" stroke-linecap="round"></line>
                <line x1="210.754956" y1="150.435115" x2="206.407576" y2="151.671711" id="路径-57备份" stroke="#FCAA6D" stroke-width="2" stroke-linecap="round"></line>
                <path d="M313.205263,64 L322.783634,66.1512546 C320.807278,66.5487341 318.938899,71.2264714 322.208868,73.4104849 C325.478838,75.5944983 329.226845,75.0003941 330.52035,72.1265026 C331.361128,70.2584731 331.045482,68.4823713 329.573409,66.7981971 L329.457892,66.6688266 L339.184895,67.5498407 L337.759235,78.6431646 C338.345831,76.9670393 340.974163,75.7779142 343.498073,77.8145149 C346.021982,79.8511156 345.32281,85.8922809 341.717928,86.8490679 C339.356835,87.4757355 337.817239,86.2762489 337.09914,83.2506083 L337.061456,83.0867734 L335.92127,94 L311,91.2864512 L311.814989,81.2019692 C311.819231,81.1493311 311.86535,81.1101087 311.917987,81.1143626 C311.954597,81.1173213 311.986276,81.1409878 311.999495,81.1752549 C311.999495,81.1752549 311.999495,81.1752549 311.999495,81.1752549 C312.818123,83.2972462 314.23425,84.0910192 316.247877,83.556574 C319.852759,82.5997869 320.551931,76.5586217 318.028022,74.522021 C315.704775,72.6473397 313.29305,73.505853 312.466735,74.9615021 C312.466735,74.9615021 312.466735,74.9615021 312.466735,74.9615021 C312.445905,74.9981973 312.399271,75.0110582 312.362576,74.9902278 C312.336741,74.9755622 312.321749,74.9472504 312.324133,74.9176388 L313.205263,64 L313.205263,64 Z" id="路径备份" fill="#E6ECFF" transform="translate(328.000000, 79.000000) rotate(-12.000000) translate(-328.000000, -79.000000) "></path>
            </g>
        </g>
    </g>
</svg>